# xmcd
#
# Track frame offsets:
#	187
#	18320
#	36017
#	52422
#	71360
#	93025
#	111130
#	134927
#	155207
#
# Disc length: 2316 seconds
#
# Revision: 4
# Processed by: cddbd v1.5.2PL0 Copyright (c) Steve Scherf et al.
# Submitted via: EasyCDDAExtractor 15.3.0.1
#
DISCID=7e090a09
DTITLE=Madonna - Like A Virgin
DYEAR=1984
DGENRE=Pop
TTITLE0=Material Girl
TTITLE1=Angel
TTITLE2=Like A Virgin
TTITLE3=Over And Over
TTITLE4=Love Don't Live Here Anymore
TTITLE5=Dress You Up
TTITLE6=Shoo-Bee-Doo
TTITLE7=Pretender
TTITLE8=Stay
EXTD=
EXTT0=
EXTT1=
EXTT2=
EXTT3=
EXTT4=
EXTT5=
EXTT6=
EXTT7=
EXTT8=
PLAYORDER=
